<mxfile host="app.diagrams.net" agent="Mozilla/5.0 (Windows NT 10.0; Win64; x64) AppleWebKit/537.36 (KHTML, like Gecko) Chrome/135.0.0.0 Safari/537.36" version="26.1.0">
  <diagram name="Page-1" id="F0lG398vl1G5-9-kigZh">
    <mxGraphModel dx="882" dy="570" grid="1" gridSize="10" guides="1" tooltips="1" connect="1" arrows="1" fold="1" page="1" pageScale="1" pageWidth="850" pageHeight="1100" math="0" shadow="0">
      <root>
        <mxCell id="0" />
        <mxCell id="1" parent="0" />
        <mxCell id="MHQTFiA_iP4XrhlyBdrr-1" value="&lt;div&gt;Status&lt;/div&gt;Total instance: 9&lt;div&gt;Pass instance: 4&lt;/div&gt;&lt;div&gt;Fail instance: 5&lt;/div&gt;" style="rounded=0;whiteSpace=wrap;html=1;" vertex="1" parent="1">
          <mxGeometry x="380" y="170" width="140" height="70" as="geometry" />
        </mxCell>
        <mxCell id="MHQTFiA_iP4XrhlyBdrr-2" value="Pass" style="rounded=0;whiteSpace=wrap;html=1;" vertex="1" parent="1">
          <mxGeometry x="180" y="280" width="80" height="40" as="geometry" />
        </mxCell>
        <mxCell id="MHQTFiA_iP4XrhlyBdrr-3" value="" style="endArrow=classic;html=1;rounded=0;" edge="1" parent="1">
          <mxGeometry width="50" height="50" relative="1" as="geometry">
            <mxPoint x="470" y="300" as="sourcePoint" />
            <mxPoint x="380" y="270" as="targetPoint" />
          </mxGeometry>
        </mxCell>
        <mxCell id="MHQTFiA_iP4XrhlyBdrr-4" value="Cost â‰¥7,000" style="edgeLabel;html=1;align=center;verticalAlign=middle;resizable=0;points=[];" vertex="1" connectable="0" parent="MHQTFiA_iP4XrhlyBdrr-3">
          <mxGeometry x="0.3" y="-2" relative="1" as="geometry">
            <mxPoint as="offset" />
          </mxGeometry>
        </mxCell>
        <mxCell id="MHQTFiA_iP4XrhlyBdrr-5" value="Fail" style="rounded=0;whiteSpace=wrap;html=1;" vertex="1" parent="1">
          <mxGeometry x="340" y="360" width="120" height="60" as="geometry" />
        </mxCell>
      </root>
    </mxGraphModel>
  </diagram>
</mxfile>
